<?xml version="1.0" standalone="no"?>
<!DOCTYPE svg PUBLIC "-//W3C//DTD SVG 20010904//EN"
 "http://www.w3.org/TR/2001/REC-SVG-20010904/DTD/svg10.dtd">
<svg version="1.0" xmlns="http://www.w3.org/2000/svg"
 width="512.000000pt" height="512.000000pt" viewBox="0 0 512.000000 512.000000"
 preserveAspectRatio="xMidYMid meet">

<g transform="translate(0.000000,512.000000) scale(0.100000,-0.100000)"
fill="#000000" stroke="none">
<path d="M727 5110 c-49 -15 -95 -58 -124 -117 l-28 -58 -3 -2373 c-2 -1728 1
-2385 9 -2415 7 -27 25 -55 51 -79 80 -73 -70 -68 1928 -68 1998 0 1848 -5
1928 68 26 24 44 52 51 79 18 65 11 3807 -7 3848 -20 45 -1058 1081 -1108
1105 -40 20 -66 20 -1355 19 -723 0 -1327 -5 -1342 -9z m2583 -700 l0 -531
530 3 530 3 0 -1102 0 -1103 -1810 0 -1810 0 0 1604 c0 1019 4 1614 10 1630
l10 26 1270 0 1270 0 0 -530z m555 20 l370 -370 -373 0 -372 0 0 370 c0 204 1
370 3 370 1 0 169 -166 372 -370z m505 -3578 c0 -491 -3 -651 -12 -660 -17
-17 -3579 -17 -3596 0 -9 9 -12 169 -12 660 l0 648 1810 0 1810 0 0 -648z"/>
<path d="M2722 3858 c-26 -29 -555 -1519 -556 -1567 0 -70 95 -108 143 -57 15
16 114 282 292 786 148 420 269 771 269 781 0 9 -12 31 -26 48 -33 39 -89 43
-122 9z"/>
<path d="M1663 3327 c-270 -270 -293 -295 -293 -327 0 -31 22 -56 278 -313
152 -153 286 -283 297 -289 58 -32 125 9 125 75 0 39 -7 47 -242 284 l-242
243 242 244 c233 235 242 245 242 282 -1 42 -13 64 -47 82 -51 27 -58 22 -360
-281z"/>
<path d="M2991 3594 c-24 -20 -31 -34 -31 -62 0 -34 15 -52 245 -282 l244
-245 -244 -246 c-229 -230 -245 -248 -245 -282 0 -52 35 -89 84 -89 38 0 49
10 328 289 278 279 288 290 288 328 0 37 -10 48 -272 313 -150 150 -285 280
-300 288 -39 20 -62 17 -97 -12z"/>
<path d="M1424 1138 c30 -57 84 -159 120 -228 l65 -124 -110 -212 c-60 -116
-109 -214 -109 -218 0 -4 37 -6 82 -4 l81 3 75 168 c41 92 78 167 81 167 4 0
38 -75 77 -167 l70 -168 82 -3 c45 -2 82 0 82 4 0 6 -34 72 -182 354 l-39 75
119 228 120 227 -83 0 -82 0 -83 -177 c-46 -98 -85 -180 -87 -183 -7 -8 -20
20 -94 193 l-72 167 -84 0 -83 0 54 -102z"/>
<path d="M2240 795 l0 -446 73 3 72 3 5 294 5 293 95 -236 95 -236 65 0 65 0
95 239 95 240 5 -297 5 -297 73 -3 72 -3 0 446 0 445 -74 0 -74 0 -45 -102
c-24 -57 -82 -190 -127 -295 -46 -106 -86 -193 -90 -193 -4 0 -65 133 -135
295 l-128 295 -74 0 -73 0 0 -445z"/>
<path d="M3282 798 l3 -443 278 -3 277 -2 0 55 0 55 -205 0 -205 0 0 390 0
390 -75 0 -75 0 2 -442z"/>
</g>
</svg>
